<svg xmlns="http://www.w3.org/2000/svg" xmlns:xlink="http://www.w3.org/1999/xlink" width="192" zoomAndPan="magnify" viewBox="0 0 144 143.999998" height="192" preserveAspectRatio="xMidYMid meet" version="1.0"><defs><g/><clipPath id="cf380ad362"><path d="M 9.871094 4.894531 L 134.371094 4.894531 L 134.371094 139.144531 L 9.871094 139.144531 Z M 9.871094 4.894531 " clip-rule="nonzero"/></clipPath></defs><g clip-path="url(#cf380ad362)"><path fill="#0367fd" d="M 9.871094 55.011719 L 9.871094 40.816406 L 72.199219 4.917969 L 134.125 40.816406 L 134.125 55.011719 L 121.488281 47.898438 L 72.199219 19.488281 L 22.507812 47.898438 Z M 22.507812 139.042969 L 65.894531 139.042969 L 65.894531 105.507812 L 52.878906 105.507812 L 52.878906 126.40625 L 22.507812 126.40625 L 22.507812 71.996094 L 52.878906 54.660156 L 52.878906 80.6875 L 65.894531 80.6875 L 65.894531 32.554688 L 9.871094 64.910156 L 9.871094 139.070312 L 22.507812 139.070312 Z M 91.140625 91.339844 L 121.488281 91.339844 L 121.488281 71.996094 L 96.613281 57.800781 L 91.085938 54.636719 L 91.085938 91.3125 L 91.140625 91.3125 Z M 121.488281 103.921875 L 91.140625 103.921875 L 91.140625 139.042969 L 78.503906 139.042969 L 78.503906 32.554688 L 134.125 64.910156 L 134.125 103.921875 Z M 121.488281 103.921875 " fill-opacity="1" fill-rule="nonzero"/></g><g fill="#ffffff" fill-opacity="1"><g transform="translate(113.359039, 2.306321)"><g><path d="M 0.890625 0 L 0.765625 0 L 0.671875 -0.265625 L 0.25 -0.265625 L 0.15625 0 L 0.03125 0 L 0.375 -0.984375 L 0.546875 -0.984375 Z M 0.453125 -0.859375 L 0.28125 -0.359375 L 0.640625 -0.359375 L 0.46875 -0.859375 Z M 0.453125 -0.859375 "/></g></g><g transform="translate(114.278845, 2.306321)"><g><path d="M 0.390625 0.015625 C 0.328125 0.015625 0.269531 0 0.21875 -0.03125 C 0.175781 -0.0625 0.140625 -0.101562 0.109375 -0.15625 C 0.0859375 -0.21875 0.078125 -0.289062 0.078125 -0.375 C 0.078125 -0.457031 0.0859375 -0.523438 0.109375 -0.578125 C 0.140625 -0.640625 0.175781 -0.679688 0.21875 -0.703125 C 0.269531 -0.734375 0.328125 -0.75 0.390625 -0.75 C 0.441406 -0.75 0.488281 -0.738281 0.53125 -0.71875 C 0.570312 -0.707031 0.601562 -0.679688 0.625 -0.640625 L 0.640625 -0.640625 L 0.640625 -1.03125 L 0.75 -1.03125 L 0.75 0 L 0.640625 0 L 0.640625 -0.109375 L 0.625 -0.109375 C 0.601562 -0.078125 0.570312 -0.046875 0.53125 -0.015625 C 0.488281 0.00390625 0.441406 0.015625 0.390625 0.015625 Z M 0.421875 -0.078125 C 0.484375 -0.078125 0.535156 -0.0976562 0.578125 -0.140625 C 0.617188 -0.191406 0.640625 -0.269531 0.640625 -0.375 C 0.640625 -0.46875 0.617188 -0.535156 0.578125 -0.578125 C 0.535156 -0.628906 0.484375 -0.65625 0.421875 -0.65625 C 0.347656 -0.65625 0.289062 -0.628906 0.25 -0.578125 C 0.21875 -0.535156 0.203125 -0.46875 0.203125 -0.375 C 0.203125 -0.175781 0.273438 -0.078125 0.421875 -0.078125 Z M 0.421875 -0.078125 "/></g></g><g transform="translate(115.160494, 2.306321)"><g><path d="M 0.390625 0.015625 C 0.328125 0.015625 0.269531 0 0.21875 -0.03125 C 0.175781 -0.0625 0.140625 -0.101562 0.109375 -0.15625 C 0.0859375 -0.21875 0.078125 -0.289062 0.078125 -0.375 C 0.078125 -0.457031 0.0859375 -0.523438 0.109375 -0.578125 C 0.140625 -0.640625 0.175781 -0.679688 0.21875 -0.703125 C 0.269531 -0.734375 0.328125 -0.75 0.390625 -0.75 C 0.441406 -0.75 0.488281 -0.738281 0.53125 -0.71875 C 0.570312 -0.707031 0.601562 -0.679688 0.625 -0.640625 L 0.640625 -0.640625 L 0.640625 -1.03125 L 0.75 -1.03125 L 0.75 0 L 0.640625 0 L 0.640625 -0.109375 L 0.625 -0.109375 C 0.601562 -0.078125 0.570312 -0.046875 0.53125 -0.015625 C 0.488281 0.00390625 0.441406 0.015625 0.390625 0.015625 Z M 0.421875 -0.078125 C 0.484375 -0.078125 0.535156 -0.0976562 0.578125 -0.140625 C 0.617188 -0.191406 0.640625 -0.269531 0.640625 -0.375 C 0.640625 -0.46875 0.617188 -0.535156 0.578125 -0.578125 C 0.535156 -0.628906 0.484375 -0.65625 0.421875 -0.65625 C 0.347656 -0.65625 0.289062 -0.628906 0.25 -0.578125 C 0.21875 -0.535156 0.203125 -0.46875 0.203125 -0.375 C 0.203125 -0.175781 0.273438 -0.078125 0.421875 -0.078125 Z M 0.421875 -0.078125 "/></g></g><g transform="translate(116.042143, 2.306321)"><g/></g><g transform="translate(116.3782, 2.306321)"><g><path d="M 0.3125 0.015625 C 0.238281 0.015625 0.179688 0 0.140625 -0.03125 C 0.0976562 -0.0703125 0.078125 -0.128906 0.078125 -0.203125 C 0.078125 -0.242188 0.0820312 -0.28125 0.09375 -0.3125 C 0.113281 -0.34375 0.140625 -0.367188 0.171875 -0.390625 C 0.210938 -0.410156 0.265625 -0.425781 0.328125 -0.4375 C 0.390625 -0.445312 0.429688 -0.457031 0.453125 -0.46875 C 0.484375 -0.476562 0.503906 -0.488281 0.515625 -0.5 C 0.523438 -0.519531 0.53125 -0.539062 0.53125 -0.5625 C 0.53125 -0.59375 0.515625 -0.613281 0.484375 -0.625 C 0.460938 -0.644531 0.425781 -0.65625 0.375 -0.65625 C 0.332031 -0.65625 0.289062 -0.644531 0.25 -0.625 C 0.21875 -0.613281 0.1875 -0.585938 0.15625 -0.546875 L 0.09375 -0.625 C 0.125 -0.664062 0.160156 -0.695312 0.203125 -0.71875 C 0.253906 -0.738281 0.3125 -0.75 0.375 -0.75 C 0.46875 -0.75 0.535156 -0.726562 0.578125 -0.6875 C 0.617188 -0.65625 0.640625 -0.601562 0.640625 -0.53125 L 0.640625 -0.140625 C 0.640625 -0.0976562 0.65625 -0.078125 0.6875 -0.078125 C 0.695312 -0.078125 0.707031 -0.0820312 0.71875 -0.09375 L 0.734375 -0.09375 L 0.75 -0.015625 C 0.738281 -0.00390625 0.722656 0 0.703125 0 C 0.691406 0 0.679688 0 0.671875 0 C 0.628906 0 0.597656 -0.00390625 0.578125 -0.015625 C 0.554688 -0.0351562 0.546875 -0.0625 0.546875 -0.09375 L 0.53125 -0.109375 C 0.507812 -0.0664062 0.476562 -0.0351562 0.4375 -0.015625 C 0.40625 0.00390625 0.363281 0.015625 0.3125 0.015625 Z M 0.328125 -0.078125 C 0.367188 -0.078125 0.40625 -0.0820312 0.4375 -0.09375 C 0.46875 -0.113281 0.488281 -0.140625 0.5 -0.171875 C 0.519531 -0.210938 0.53125 -0.253906 0.53125 -0.296875 L 0.53125 -0.390625 L 0.515625 -0.390625 C 0.503906 -0.378906 0.484375 -0.367188 0.453125 -0.359375 C 0.429688 -0.359375 0.398438 -0.351562 0.359375 -0.34375 C 0.316406 -0.34375 0.28125 -0.332031 0.25 -0.3125 C 0.226562 -0.300781 0.210938 -0.285156 0.203125 -0.265625 C 0.191406 -0.253906 0.1875 -0.234375 0.1875 -0.203125 C 0.1875 -0.160156 0.195312 -0.128906 0.21875 -0.109375 C 0.25 -0.0859375 0.285156 -0.078125 0.328125 -0.078125 Z M 0.328125 -0.078125 "/></g></g><g transform="translate(117.142028, 2.306321)"><g/></g><g transform="translate(117.478086, 2.306321)"><g><path d="M 0.296875 0.015625 C 0.242188 0.015625 0.203125 0 0.171875 -0.03125 C 0.140625 -0.0625 0.125 -0.101562 0.125 -0.15625 L 0.125 -1.03125 L 0.234375 -1.03125 L 0.234375 -0.171875 C 0.234375 -0.140625 0.238281 -0.113281 0.25 -0.09375 C 0.257812 -0.0820312 0.28125 -0.078125 0.3125 -0.078125 C 0.320312 -0.078125 0.335938 -0.0820312 0.359375 -0.09375 L 0.375 0 C 0.363281 0 0.347656 0 0.328125 0 C 0.316406 0.0078125 0.304688 0.015625 0.296875 0.015625 Z M 0.296875 0.015625 "/></g></g><g transform="translate(117.879748, 2.306321)"><g><path d="M 0.1875 -0.890625 C 0.164062 -0.890625 0.144531 -0.894531 0.125 -0.90625 C 0.113281 -0.914062 0.109375 -0.929688 0.109375 -0.953125 C 0.109375 -0.984375 0.113281 -1.003906 0.125 -1.015625 C 0.144531 -1.023438 0.164062 -1.03125 0.1875 -1.03125 C 0.207031 -1.03125 0.222656 -1.023438 0.234375 -1.015625 C 0.253906 -1.003906 0.265625 -0.984375 0.265625 -0.953125 C 0.265625 -0.929688 0.253906 -0.914062 0.234375 -0.90625 C 0.222656 -0.894531 0.207031 -0.890625 0.1875 -0.890625 Z M 0.125 0 L 0.125 -0.734375 L 0.234375 -0.734375 L 0.234375 0 Z M 0.125 0 "/></g></g><g transform="translate(118.24593, 2.306321)"><g><path d="M 0.5 -0.125 L 0.53125 -0.03125 C 0.519531 -0.0195312 0.5 -0.0078125 0.46875 0 C 0.4375 0.0078125 0.40625 0.015625 0.375 0.015625 C 0.226562 0.015625 0.15625 -0.0546875 0.15625 -0.203125 L 0.15625 -0.65625 L 0.03125 -0.65625 L 0.03125 -0.734375 L 0.15625 -0.734375 L 0.15625 -0.890625 L 0.265625 -0.921875 L 0.265625 -0.734375 L 0.515625 -0.734375 L 0.515625 -0.65625 L 0.265625 -0.65625 L 0.265625 -0.21875 C 0.265625 -0.125 0.300781 -0.078125 0.375 -0.078125 C 0.414062 -0.078125 0.453125 -0.09375 0.484375 -0.125 Z M 0.5 -0.125 "/></g></g><g transform="translate(118.808257, 2.306321)"><g><path d="M 0.5 -0.125 L 0.53125 -0.03125 C 0.519531 -0.0195312 0.5 -0.0078125 0.46875 0 C 0.4375 0.0078125 0.40625 0.015625 0.375 0.015625 C 0.226562 0.015625 0.15625 -0.0546875 0.15625 -0.203125 L 0.15625 -0.65625 L 0.03125 -0.65625 L 0.03125 -0.734375 L 0.15625 -0.734375 L 0.15625 -0.890625 L 0.265625 -0.921875 L 0.265625 -0.734375 L 0.515625 -0.734375 L 0.515625 -0.65625 L 0.265625 -0.65625 L 0.265625 -0.21875 C 0.265625 -0.125 0.300781 -0.078125 0.375 -0.078125 C 0.414062 -0.078125 0.453125 -0.09375 0.484375 -0.125 Z M 0.5 -0.125 "/></g></g><g transform="translate(119.370584, 2.306321)"><g><path d="M 0.296875 0.015625 C 0.242188 0.015625 0.203125 0 0.171875 -0.03125 C 0.140625 -0.0625 0.125 -0.101562 0.125 -0.15625 L 0.125 -1.03125 L 0.234375 -1.03125 L 0.234375 -0.171875 C 0.234375 -0.140625 0.238281 -0.113281 0.25 -0.09375 C 0.257812 -0.0820312 0.28125 -0.078125 0.3125 -0.078125 C 0.320312 -0.078125 0.335938 -0.0820312 0.359375 -0.09375 L 0.375 0 C 0.363281 0 0.347656 0 0.328125 0 C 0.316406 0.0078125 0.304688 0.015625 0.296875 0.015625 Z M 0.296875 0.015625 "/></g></g><g transform="translate(119.772247, 2.306321)"><g><path d="M 0.703125 -0.34375 L 0.203125 -0.34375 C 0.203125 -0.25 0.222656 -0.179688 0.265625 -0.140625 C 0.304688 -0.0976562 0.359375 -0.078125 0.421875 -0.078125 C 0.472656 -0.078125 0.515625 -0.0859375 0.546875 -0.109375 C 0.585938 -0.128906 0.613281 -0.160156 0.625 -0.203125 L 0.640625 -0.203125 L 0.71875 -0.15625 C 0.695312 -0.101562 0.660156 -0.0625 0.609375 -0.03125 C 0.566406 0 0.503906 0.015625 0.421875 0.015625 C 0.347656 0.015625 0.285156 0 0.234375 -0.03125 C 0.191406 -0.0625 0.15625 -0.101562 0.125 -0.15625 C 0.09375 -0.21875 0.078125 -0.289062 0.078125 -0.375 C 0.078125 -0.457031 0.09375 -0.523438 0.125 -0.578125 C 0.15625 -0.640625 0.195312 -0.679688 0.25 -0.703125 C 0.300781 -0.734375 0.359375 -0.75 0.421875 -0.75 C 0.515625 -0.75 0.585938 -0.722656 0.640625 -0.671875 C 0.691406 -0.617188 0.71875 -0.539062 0.71875 -0.4375 C 0.71875 -0.394531 0.71875 -0.367188 0.71875 -0.359375 Z M 0.609375 -0.4375 C 0.609375 -0.507812 0.59375 -0.5625 0.5625 -0.59375 C 0.53125 -0.632812 0.484375 -0.65625 0.421875 -0.65625 C 0.359375 -0.65625 0.304688 -0.632812 0.265625 -0.59375 C 0.234375 -0.5625 0.210938 -0.507812 0.203125 -0.4375 Z M 0.609375 -0.4375 "/></g></g><g transform="translate(120.559505, 2.306321)"><g/></g><g transform="translate(120.895562, 2.306321)"><g><path d="M 0.484375 0.015625 C 0.429688 0.015625 0.382812 0.00390625 0.34375 -0.015625 C 0.300781 -0.0351562 0.269531 -0.0664062 0.25 -0.109375 L 0.234375 -0.09375 L 0.234375 0 L 0.125 0 L 0.125 -1.03125 L 0.234375 -1.03125 L 0.234375 -0.625 L 0.25 -0.625 C 0.3125 -0.707031 0.394531 -0.75 0.5 -0.75 C 0.5625 -0.75 0.613281 -0.734375 0.65625 -0.703125 C 0.695312 -0.679688 0.726562 -0.640625 0.75 -0.578125 C 0.78125 -0.523438 0.796875 -0.457031 0.796875 -0.375 C 0.796875 -0.289062 0.78125 -0.21875 0.75 -0.15625 C 0.726562 -0.101562 0.691406 -0.0625 0.640625 -0.03125 C 0.597656 0 0.546875 0.015625 0.484375 0.015625 Z M 0.46875 -0.078125 C 0.613281 -0.078125 0.6875 -0.175781 0.6875 -0.375 C 0.6875 -0.46875 0.664062 -0.535156 0.625 -0.578125 C 0.59375 -0.628906 0.539062 -0.65625 0.46875 -0.65625 C 0.394531 -0.65625 0.335938 -0.628906 0.296875 -0.578125 C 0.253906 -0.535156 0.234375 -0.46875 0.234375 -0.375 C 0.234375 -0.269531 0.253906 -0.191406 0.296875 -0.140625 C 0.335938 -0.0976562 0.394531 -0.078125 0.46875 -0.078125 Z M 0.46875 -0.078125 "/></g></g><g transform="translate(121.776542, 2.306321)"><g><path d="M 0.1875 -0.890625 C 0.164062 -0.890625 0.144531 -0.894531 0.125 -0.90625 C 0.113281 -0.914062 0.109375 -0.929688 0.109375 -0.953125 C 0.109375 -0.984375 0.113281 -1.003906 0.125 -1.015625 C 0.144531 -1.023438 0.164062 -1.03125 0.1875 -1.03125 C 0.207031 -1.03125 0.222656 -1.023438 0.234375 -1.015625 C 0.253906 -1.003906 0.265625 -0.984375 0.265625 -0.953125 C 0.265625 -0.929688 0.253906 -0.914062 0.234375 -0.90625 C 0.222656 -0.894531 0.207031 -0.890625 0.1875 -0.890625 Z M 0.125 0 L 0.125 -0.734375 L 0.234375 -0.734375 L 0.234375 0 Z M 0.125 0 "/></g></g><g transform="translate(122.142724, 2.306321)"><g><path d="M 0.5 -0.125 L 0.53125 -0.03125 C 0.519531 -0.0195312 0.5 -0.0078125 0.46875 0 C 0.4375 0.0078125 0.40625 0.015625 0.375 0.015625 C 0.226562 0.015625 0.15625 -0.0546875 0.15625 -0.203125 L 0.15625 -0.65625 L 0.03125 -0.65625 L 0.03125 -0.734375 L 0.15625 -0.734375 L 0.15625 -0.890625 L 0.265625 -0.921875 L 0.265625 -0.734375 L 0.515625 -0.734375 L 0.515625 -0.65625 L 0.265625 -0.65625 L 0.265625 -0.21875 C 0.265625 -0.125 0.300781 -0.078125 0.375 -0.078125 C 0.414062 -0.078125 0.453125 -0.09375 0.484375 -0.125 Z M 0.5 -0.125 "/></g></g><g transform="translate(122.705051, 2.306321)"><g/></g><g transform="translate(123.041108, 2.306321)"><g><path d="M 0.421875 0.015625 C 0.347656 0.015625 0.285156 0 0.234375 -0.03125 C 0.191406 -0.0625 0.15625 -0.101562 0.125 -0.15625 C 0.09375 -0.21875 0.078125 -0.289062 0.078125 -0.375 C 0.078125 -0.457031 0.09375 -0.523438 0.125 -0.578125 C 0.15625 -0.640625 0.191406 -0.679688 0.234375 -0.703125 C 0.285156 -0.734375 0.347656 -0.75 0.421875 -0.75 C 0.492188 -0.75 0.554688 -0.734375 0.609375 -0.703125 C 0.660156 -0.679688 0.695312 -0.640625 0.71875 -0.578125 C 0.75 -0.523438 0.765625 -0.457031 0.765625 -0.375 C 0.765625 -0.289062 0.75 -0.21875 0.71875 -0.15625 C 0.695312 -0.101562 0.660156 -0.0625 0.609375 -0.03125 C 0.554688 0 0.492188 0.015625 0.421875 0.015625 Z M 0.421875 -0.078125 C 0.492188 -0.078125 0.550781 -0.0976562 0.59375 -0.140625 C 0.632812 -0.191406 0.65625 -0.269531 0.65625 -0.375 C 0.65625 -0.46875 0.632812 -0.535156 0.59375 -0.578125 C 0.550781 -0.628906 0.492188 -0.65625 0.421875 -0.65625 C 0.347656 -0.65625 0.289062 -0.628906 0.25 -0.578125 C 0.21875 -0.535156 0.203125 -0.46875 0.203125 -0.375 C 0.203125 -0.269531 0.21875 -0.191406 0.25 -0.140625 C 0.289062 -0.0976562 0.347656 -0.078125 0.421875 -0.078125 Z M 0.421875 -0.078125 "/></g></g><g transform="translate(123.888616, 2.306321)"><g><path d="M 0.171875 0 L 0.171875 -0.65625 L 0.03125 -0.65625 L 0.03125 -0.734375 L 0.171875 -0.734375 C 0.160156 -0.773438 0.15625 -0.804688 0.15625 -0.828125 C 0.15625 -0.878906 0.164062 -0.921875 0.1875 -0.953125 C 0.207031 -0.984375 0.234375 -1.003906 0.265625 -1.015625 C 0.304688 -1.035156 0.347656 -1.046875 0.390625 -1.046875 C 0.460938 -1.046875 0.519531 -1.03125 0.5625 -1 L 0.515625 -0.921875 L 0.5 -0.921875 C 0.476562 -0.941406 0.441406 -0.953125 0.390625 -0.953125 C 0.347656 -0.953125 0.316406 -0.941406 0.296875 -0.921875 C 0.273438 -0.898438 0.265625 -0.867188 0.265625 -0.828125 C 0.265625 -0.804688 0.269531 -0.773438 0.28125 -0.734375 L 0.515625 -0.734375 L 0.515625 -0.65625 L 0.28125 -0.65625 L 0.28125 0 Z M 0.171875 0 "/></g></g><g transform="translate(124.414793, 2.306321)"><g/></g><g transform="translate(124.750851, 2.306321)"><g><path d="M 0.484375 0.015625 C 0.429688 0.015625 0.382812 0.00390625 0.34375 -0.015625 C 0.300781 -0.0351562 0.269531 -0.0664062 0.25 -0.109375 L 0.234375 -0.09375 L 0.234375 0 L 0.125 0 L 0.125 -1.03125 L 0.234375 -1.03125 L 0.234375 -0.625 L 0.25 -0.625 C 0.3125 -0.707031 0.394531 -0.75 0.5 -0.75 C 0.5625 -0.75 0.613281 -0.734375 0.65625 -0.703125 C 0.695312 -0.679688 0.726562 -0.640625 0.75 -0.578125 C 0.78125 -0.523438 0.796875 -0.457031 0.796875 -0.375 C 0.796875 -0.289062 0.78125 -0.21875 0.75 -0.15625 C 0.726562 -0.101562 0.691406 -0.0625 0.640625 -0.03125 C 0.597656 0 0.546875 0.015625 0.484375 0.015625 Z M 0.46875 -0.078125 C 0.613281 -0.078125 0.6875 -0.175781 0.6875 -0.375 C 0.6875 -0.46875 0.664062 -0.535156 0.625 -0.578125 C 0.59375 -0.628906 0.539062 -0.65625 0.46875 -0.65625 C 0.394531 -0.65625 0.335938 -0.628906 0.296875 -0.578125 C 0.253906 -0.535156 0.234375 -0.46875 0.234375 -0.375 C 0.234375 -0.269531 0.253906 -0.191406 0.296875 -0.140625 C 0.335938 -0.0976562 0.394531 -0.078125 0.46875 -0.078125 Z M 0.46875 -0.078125 "/></g></g><g transform="translate(125.63183, 2.306321)"><g><path d="M 0.421875 0.015625 C 0.347656 0.015625 0.285156 0 0.234375 -0.03125 C 0.191406 -0.0625 0.15625 -0.101562 0.125 -0.15625 C 0.09375 -0.21875 0.078125 -0.289062 0.078125 -0.375 C 0.078125 -0.457031 0.09375 -0.523438 0.125 -0.578125 C 0.15625 -0.640625 0.191406 -0.679688 0.234375 -0.703125 C 0.285156 -0.734375 0.347656 -0.75 0.421875 -0.75 C 0.492188 -0.75 0.554688 -0.734375 0.609375 -0.703125 C 0.660156 -0.679688 0.695312 -0.640625 0.71875 -0.578125 C 0.75 -0.523438 0.765625 -0.457031 0.765625 -0.375 C 0.765625 -0.289062 0.75 -0.21875 0.71875 -0.15625 C 0.695312 -0.101562 0.660156 -0.0625 0.609375 -0.03125 C 0.554688 0 0.492188 0.015625 0.421875 0.015625 Z M 0.421875 -0.078125 C 0.492188 -0.078125 0.550781 -0.0976562 0.59375 -0.140625 C 0.632812 -0.191406 0.65625 -0.269531 0.65625 -0.375 C 0.65625 -0.46875 0.632812 -0.535156 0.59375 -0.578125 C 0.550781 -0.628906 0.492188 -0.65625 0.421875 -0.65625 C 0.347656 -0.65625 0.289062 -0.628906 0.25 -0.578125 C 0.21875 -0.535156 0.203125 -0.46875 0.203125 -0.375 C 0.203125 -0.269531 0.21875 -0.191406 0.25 -0.140625 C 0.289062 -0.0976562 0.347656 -0.078125 0.421875 -0.078125 Z M 0.421875 -0.078125 "/></g></g><g transform="translate(126.479338, 2.306321)"><g><path d="M 0.390625 0.015625 C 0.328125 0.015625 0.269531 0 0.21875 -0.03125 C 0.175781 -0.0625 0.140625 -0.101562 0.109375 -0.15625 C 0.0859375 -0.21875 0.078125 -0.289062 0.078125 -0.375 C 0.078125 -0.457031 0.0859375 -0.523438 0.109375 -0.578125 C 0.140625 -0.640625 0.175781 -0.679688 0.21875 -0.703125 C 0.269531 -0.734375 0.328125 -0.75 0.390625 -0.75 C 0.441406 -0.75 0.488281 -0.738281 0.53125 -0.71875 C 0.570312 -0.707031 0.601562 -0.679688 0.625 -0.640625 L 0.640625 -0.640625 L 0.640625 -1.03125 L 0.75 -1.03125 L 0.75 0 L 0.640625 0 L 0.640625 -0.109375 L 0.625 -0.109375 C 0.601562 -0.078125 0.570312 -0.046875 0.53125 -0.015625 C 0.488281 0.00390625 0.441406 0.015625 0.390625 0.015625 Z M 0.421875 -0.078125 C 0.484375 -0.078125 0.535156 -0.0976562 0.578125 -0.140625 C 0.617188 -0.191406 0.640625 -0.269531 0.640625 -0.375 C 0.640625 -0.46875 0.617188 -0.535156 0.578125 -0.578125 C 0.535156 -0.628906 0.484375 -0.65625 0.421875 -0.65625 C 0.347656 -0.65625 0.289062 -0.628906 0.25 -0.578125 C 0.21875 -0.535156 0.203125 -0.46875 0.203125 -0.375 C 0.203125 -0.175781 0.273438 -0.078125 0.421875 -0.078125 Z M 0.421875 -0.078125 "/></g></g><g transform="translate(127.360987, 2.306321)"><g><path d="M 0.140625 0.3125 C 0.117188 0.3125 0.0976562 0.304688 0.078125 0.296875 C 0.0546875 0.296875 0.0351562 0.296875 0.015625 0.296875 L 0.046875 0.203125 C 0.0664062 0.203125 0.0820312 0.203125 0.09375 0.203125 C 0.113281 0.210938 0.128906 0.21875 0.140625 0.21875 C 0.171875 0.21875 0.195312 0.210938 0.21875 0.203125 C 0.238281 0.191406 0.253906 0.175781 0.265625 0.15625 C 0.285156 0.144531 0.300781 0.125 0.3125 0.09375 L 0.328125 0.015625 L 0.03125 -0.734375 L 0.15625 -0.734375 L 0.390625 -0.140625 L 0.40625 -0.140625 L 0.625 -0.734375 L 0.734375 -0.734375 L 0.40625 0.109375 C 0.382812 0.160156 0.363281 0.203125 0.34375 0.234375 C 0.320312 0.265625 0.296875 0.285156 0.265625 0.296875 C 0.234375 0.304688 0.191406 0.3125 0.140625 0.3125 Z M 0.140625 0.3125 "/></g></g><g transform="translate(128.139542, 2.306321)"><g/></g><g transform="translate(128.475599, 2.306321)"><g><path d="M 0.5 -0.125 L 0.53125 -0.03125 C 0.519531 -0.0195312 0.5 -0.0078125 0.46875 0 C 0.4375 0.0078125 0.40625 0.015625 0.375 0.015625 C 0.226562 0.015625 0.15625 -0.0546875 0.15625 -0.203125 L 0.15625 -0.65625 L 0.03125 -0.65625 L 0.03125 -0.734375 L 0.15625 -0.734375 L 0.15625 -0.890625 L 0.265625 -0.921875 L 0.265625 -0.734375 L 0.515625 -0.734375 L 0.515625 -0.65625 L 0.265625 -0.65625 L 0.265625 -0.21875 C 0.265625 -0.125 0.300781 -0.078125 0.375 -0.078125 C 0.414062 -0.078125 0.453125 -0.09375 0.484375 -0.125 Z M 0.5 -0.125 "/></g></g><g transform="translate(129.037927, 2.306321)"><g><path d="M 0.703125 -0.34375 L 0.203125 -0.34375 C 0.203125 -0.25 0.222656 -0.179688 0.265625 -0.140625 C 0.304688 -0.0976562 0.359375 -0.078125 0.421875 -0.078125 C 0.472656 -0.078125 0.515625 -0.0859375 0.546875 -0.109375 C 0.585938 -0.128906 0.613281 -0.160156 0.625 -0.203125 L 0.640625 -0.203125 L 0.71875 -0.15625 C 0.695312 -0.101562 0.660156 -0.0625 0.609375 -0.03125 C 0.566406 0 0.503906 0.015625 0.421875 0.015625 C 0.347656 0.015625 0.285156 0 0.234375 -0.03125 C 0.191406 -0.0625 0.15625 -0.101562 0.125 -0.15625 C 0.09375 -0.21875 0.078125 -0.289062 0.078125 -0.375 C 0.078125 -0.457031 0.09375 -0.523438 0.125 -0.578125 C 0.15625 -0.640625 0.195312 -0.679688 0.25 -0.703125 C 0.300781 -0.734375 0.359375 -0.75 0.421875 -0.75 C 0.515625 -0.75 0.585938 -0.722656 0.640625 -0.671875 C 0.691406 -0.617188 0.71875 -0.539062 0.71875 -0.4375 C 0.71875 -0.394531 0.71875 -0.367188 0.71875 -0.359375 Z M 0.609375 -0.4375 C 0.609375 -0.507812 0.59375 -0.5625 0.5625 -0.59375 C 0.53125 -0.632812 0.484375 -0.65625 0.421875 -0.65625 C 0.359375 -0.65625 0.304688 -0.632812 0.265625 -0.59375 C 0.234375 -0.5625 0.210938 -0.507812 0.203125 -0.4375 Z M 0.609375 -0.4375 "/></g></g><g transform="translate(129.825185, 2.306321)"><g><path d="M 0.15625 0 L 0.03125 0 L 0.265625 -0.390625 L 0.046875 -0.734375 L 0.171875 -0.734375 L 0.34375 -0.453125 L 0.359375 -0.453125 L 0.53125 -0.734375 L 0.640625 -0.734375 L 0.4375 -0.390625 L 0.65625 0 L 0.53125 0 L 0.34375 -0.3125 L 0.328125 -0.3125 Z M 0.15625 0 "/></g></g><g transform="translate(130.513366, 2.306321)"><g><path d="M 0.5 -0.125 L 0.53125 -0.03125 C 0.519531 -0.0195312 0.5 -0.0078125 0.46875 0 C 0.4375 0.0078125 0.40625 0.015625 0.375 0.015625 C 0.226562 0.015625 0.15625 -0.0546875 0.15625 -0.203125 L 0.15625 -0.65625 L 0.03125 -0.65625 L 0.03125 -0.734375 L 0.15625 -0.734375 L 0.15625 -0.890625 L 0.265625 -0.921875 L 0.265625 -0.734375 L 0.515625 -0.734375 L 0.515625 -0.65625 L 0.265625 -0.65625 L 0.265625 -0.21875 C 0.265625 -0.125 0.300781 -0.078125 0.375 -0.078125 C 0.414062 -0.078125 0.453125 -0.09375 0.484375 -0.125 Z M 0.5 -0.125 "/></g></g></g></svg>